# xmcd
#
# Track frame offsets:
#	150
#	20615
#	40522
#	70835
#	98755
#
# Disc length: 1537 seconds
#
# Revision: 6
# Processed by: cddbd v1.5.2PL0 Copyright (c) Steve Scherf et al.
# Submitted via: EZCDAudioConverter 1.3.4.1
#
DISCID=3405ff05
DTITLE=Dave Stewart and The Spiritual Cowboys - Party Town
DYEAR=1990
DGENRE=
TTITLE0=Party Town
TTITLE1=Party On Down
TTITLE2=Party Town [Party Politico Mix]
TTITLE3=Love Calculator
TTITLE4=Suicidal Sid
EXTD=
EXTT0=
EXTT1=
EXTT2=
EXTT3=
EXTT4=
PLAYORDER=
